Coordinates
version=1
nRows=10
nColumns=40
inDegrees=yes

Units are S.I. units (second, meters, Newtons, ...)
If the header above contains a line with 'inDegrees', this indicates whether rotational values are in degrees (yes) or radians (no).

endheader
time	pelvis_tilt	pelvis_list	pelvis_rotation	pelvis_tx	pelvis_ty	pelvis_tz	hip_flexion_r	hip_adduction_r	hip_rotation_r	knee_angle_r	knee_angle_r_beta	ankle_angle_r	subtalar_angle_r	mtp_angle_r	hip_flexion_l	hip_adduction_l	hip_rotation_l	knee_angle_l	knee_angle_l_beta	ankle_angle_l	subtalar_angle_l	mtp_angle_l	lumbar_extension	lumbar_bending	lumbar_rotation	arm_flex_r	arm_add_r	arm_rot_r	elbow_flex_r	pro_sup_r	wrist_flex_r	wrist_dev_r	arm_flex_l	arm_add_l	arm_rot_l	elbow_flex_l	pro_sup_l	wrist_flex_l	wrist_dev_l
      4.45000000	     -1.85356866	     -5.00935760	     -8.87630868	     -0.28815104	      0.83443797	     -0.99300049	     15.65681838	     -4.79757202	     -0.26105843	     99.33070118	      1.73364778	    -19.08513763	      0.00000000	      0.00000000	     41.53922036	     -7.87123678	     -8.73812198	     83.68344518	      1.46055165	     30.82815640	      0.00000000	      0.00000000	    -12.42493473	     -0.97290730	     12.26423554	     89.93791193	    -15.11936272	     21.17555216	     39.21548880	     80.69272315	      0.00000000	      0.00000000	     89.94922869	    -14.98408903	     33.86872488	     46.61377940	     82.25130813	      0.00000000	      0.00000000
      4.45500000	     -1.85622187	     -5.00473242	     -8.79746872	     -0.28804185	      0.83426029	     -0.99319199	     15.61196249	     -4.82664823	     -0.32441629	     99.34157926	      1.73383764	    -19.23955605	      0.00000000	      0.00000000	     41.56390165	     -7.78711434	     -8.67359569	     83.70747755	      1.46097109	     30.98616328	      0.00000000	      0.00000000	    -12.45704312	     -0.96019547	     12.17744894	     89.93819702	    -15.23098207	     21.21430685	     39.35279838	     83.45885528	      0.00000000	      0.00000000	     89.94927246	    -15.01496717	     33.51609006	     46.74241659	     85.61594035	      0.00000000	      0.00000000
      4.46000000	     -1.81416411	     -4.94301156	     -8.79072220	     -0.28788213	      0.83417111	     -0.99332996	     15.53431662	     -4.91159026	     -0.29469009	     99.36582931	      1.73426089	    -19.21131263	      0.00000000	      0.00000000	     41.50899744	     -7.69998865	     -8.71855965	     83.69868984	      1.46081772	     31.00432877	      0.00000000	      0.00000000	    -12.50096385	     -1.02249632	     12.20329285	     89.93827816	    -15.23671652	     21.06519182	     39.34068908	     83.94567300	      0.00000000	      0.00000000	     89.94939124	    -14.99106869	     33.58624450	     46.72629592	     85.45024979	      0.00000000	      0.00000000
      4.46500000	     -1.91928483	     -4.97563808	     -8.78109637	     -0.28791101	      0.83381424	     -0.99333174	     15.61408952	     -4.84395661	     -0.31541161	     99.43016282	      1.73538372	    -19.04864579	      0.00000000	      0.00000000	     41.66468414	     -7.73307515	     -8.65894896	     83.76477430	      1.46197111	     30.90043444	      0.00000000	      0.00000000	    -12.39865281	     -0.98140263	     12.22087071	     89.93811970	    -15.08585126	     20.89871783	     39.18406058	     80.78463661	      0.00000000	      0.00000000	     89.94973557	    -14.89636374	     33.88880115	     46.63525303	     82.18120449	      0.00000000	      0.00000000
      4.47000000	     -1.93843283	     -4.96531753	     -8.72822929	     -0.28780524	      0.83357677	     -0.99355710	     15.60746135	     -4.88257532	     -0.34373576	     99.45054919	      1.73573953	    -19.19093788	      0.00000000	      0.00000000	     41.70839729	     -7.67918521	     -8.63423076	     83.80671167	      1.46270305	     31.04074136	      0.00000000	      0.00000000	    -12.40588535	     -0.95631210	     12.20311311	     89.93852956	    -15.24266977	     21.00824328	     39.33449837	     83.23452932	      0.00000000	      0.00000000	     89.94961360	    -14.91676556	     33.57406850	     46.67736640	     85.51493892	      0.00000000	      0.00000000
      4.47500000	     -1.94468702	     -4.94814593	     -8.68869265	     -0.28769146	      0.83339042	     -0.99369424	     15.59005334	     -4.92165253	     -0.38152534	     99.49060961	      1.73643871	    -19.29146984	      0.00000000	      0.00000000	     41.72312839	     -7.59856369	     -8.58927448	     83.81442110	      1.46283761	     31.17596901	      0.00000000	      0.00000000	    -12.41960244	     -0.96672995	     12.17640435	     89.93881299	    -15.32278895	     21.40613207	     39.48453555	     81.36252023	      0.00000000	      0.00000000	     89.94970139	    -14.94806727	     33.82451140	     46.81794736	     83.34349059	      0.00000000	      0.00000000
      4.48000000	     -2.00838466	     -4.95690487	     -8.69189383	     -0.28767828	      0.83314629	     -0.99376221	     15.63280992	     -4.86801840	     -0.33714888	     99.53764449	      1.73725963	    -19.17460677	      0.00000000	      0.00000000	     41.81607128	     -7.61112305	     -8.56696545	     83.85412307	      1.46353054	     31.10004490	      0.00000000	      0.00000000	    -12.36649234	     -0.94807962	     12.22420910	     89.93879109	    -15.27001269	     20.85029343	     39.36571768	     83.59554183	      0.00000000	      0.00000000	     89.94979594	    -14.84007830	     33.50126958	     46.70733345	     85.51730068	      0.00000000	      0.00000000
      4.48500000	     -2.05357853	     -4.94432775	     -8.70561303	     -0.28760656	      0.83289650	     -0.99383737	     15.66944152	     -4.85704888	     -0.30434477	     99.59641656	      1.73828539	    -19.17768948	      0.00000000	      0.00000000	     41.87858814	     -7.60102373	     -8.56535431	     83.88727632	      1.46410917	     31.09169036	      0.00000000	      0.00000000	    -12.33195723	     -0.94963774	     12.26546816	     89.93888728	    -15.27175502	     20.78834052	     39.35649950	     83.56928028	      0.00000000	      0.00000000	     89.94989941	    -14.80532595	     33.50972782	     46.69358011	     85.55471042	      0.00000000	      0.00000000
      4.49000000	     -2.09072564	     -4.93111503	     -8.73406410	     -0.28755665	      0.83265291	     -0.99388339	     15.70287195	     -4.84128879	     -0.25758458	     99.65236806	      1.73926193	    -19.19367267	      0.00000000	      0.00000000	     41.93119187	     -7.59738016	     -8.57246332	     83.93361927	      1.46491801	     31.11757052	      0.00000000	      0.00000000	    -12.30624731	     -0.96090466	     12.33083439	     89.93898568	    -15.28257688	     20.66895474	     39.38129662	     83.82591820	      0.00000000	      0.00000000	     89.95007968	    -14.75454621	     33.53114952	     46.67746038	     85.41483553	      0.00000000	      0.00000000
      4.49500000	     -2.13673247	     -4.94849368	     -8.76573981	     -0.28752752	      0.83244689	     -0.99390777	     15.73644780	     -4.78080280	     -0.20428149	     99.68849870	      1.73989253	    -19.21005062	      0.00000000	      0.00000000	     41.98622244	     -7.63915530	     -8.57295119	     83.95528060	      1.46529607	     31.13096066	      0.00000000	      0.00000000	    -12.27413432	     -0.94083402	     12.39830224	     89.93917229	    -15.29223045	     20.61909983	     39.38041116	     83.95074328	      0.00000000	      0.00000000	     89.95012228	    -14.71147045	     33.55957482	     46.64108554	     85.32160320	      0.00000000	      0.00000000
